<svg width="172" height="55" viewBox="0 0 172 55" fill="none" xmlns="http://www.w3.org/2000/svg">
<g clip-path="url(#clip0_186_1272)">
<path d="M12.3338 2.47656C8.95456 4.27894 5.50861 6.07521 2.62688 9.09343C-0.0546486 11.8489 -0.752331 16.5473 0.861439 20.091C2.59592 23.541 4.8467 26.7021 7.53492 29.4633C5.73264 20.1799 7.44447 10.5532 12.3338 2.47656Z" fill="#37A58C"/>
<path d="M9.52539 31.2596C12.8439 33.3797 16.1625 35.4387 20.021 36.3368C24.2313 37.3021 28.1262 35.567 30.6136 32.1577C32.5505 28.9412 34.0637 25.4846 35.1152 21.875C28.0359 28.0907 18.9158 31.4354 9.52539 31.2596Z" fill="#DD0060"/>
<path d="M34.4715 5.3636C33.6671 3.88016 32.5135 2.61815 31.112 1.68821C29.7106 0.758271 28.1039 0.188818 26.433 0.0297827C22.6546 -0.115807 18.8746 0.272892 15.2033 1.18453C23.4967 3.90337 31.8021 10.8257 36.0064 18.86C36.1945 14.235 36.4008 9.28606 34.4715 5.3636Z" fill="#505050"/>
<path d="M171.339 51.354C171.842 49.9604 172.061 48.4786 171.982 46.9977V18.8928H162.426V46.7777C162.43 47.0425 162.383 47.3055 162.286 47.5517C162.189 47.7978 162.045 48.0224 161.862 48.2124C161.678 48.4025 161.46 48.5544 161.219 48.6594C160.977 48.7644 160.718 48.8205 160.455 48.8245H160.248C159.729 48.8598 159.217 48.687 158.824 48.3436C158.431 48.0003 158.188 47.5143 158.149 46.9916V18.8867H148.637V46.9916C148.545 48.472 148.751 49.9559 149.243 51.354C149.633 52.1901 150.201 52.9296 150.907 53.5199C151.612 54.1102 152.438 54.5367 153.326 54.7693C154.18 54.9304 155.048 55.0041 155.917 54.9893H164.647C165.519 55.0058 166.391 54.9363 167.249 54.7815C168.14 54.5504 168.969 54.1231 169.676 53.5304C170.383 52.9376 170.951 52.1943 171.339 51.354Z" fill="#222222"/>
<path d="M126.288 18.875C123.2 18.875 121.046 21.5633 121.071 24.777V54.9898H130.777V39.9903H134.733V54.9898H144.391V18.875H126.288ZM134.721 33.795H130.783V26.4633C130.783 25.1253 131.281 24.6304 132.488 24.6304H134.721V33.795Z" fill="#222222"/>
<path d="M107.074 18.875V33.795H102.827V18.875H93.0781V54.9898H102.846V39.9903H107.032V54.9898H116.811V18.875H107.074Z" fill="#222222"/>
<path d="M82.243 25.8646H88.8679V18.875H72.4512V54.9898H88.8801V47.9941H82.2066V39.9903H87.8669V33.795H82.2066L82.243 25.8646Z" fill="#222222"/>
<path d="M63.3501 36.6962C64.6983 36.445 65.9186 35.7313 66.8034 34.6765C67.6882 33.6217 68.183 32.2909 68.2036 30.9102V24.8005C68.149 21.5317 65.7768 18.8984 63.1924 18.8984H44.7129V54.9888H54.3409V39.9893H56.7676C57.981 39.9893 58.4603 40.5575 58.4603 41.865V54.9888H68.2036V42.5676C68.2036 39.3783 65.6494 36.965 63.3501 36.6962ZM58.4178 32.01C58.4542 33.0975 57.9992 33.7451 57.2044 33.8429H54.3288V24.6783H56.7555C57.9689 24.6783 58.4663 25.2892 58.4481 26.5112L58.4178 32.01Z" fill="#222222"/>
</g>
<defs>
<clipPath id="clip0_186_1272">
<rect width="172" height="55" fill="white"/>
</clipPath>
</defs>
</svg>
