<svg width="173" height="43" viewBox="0 0 173 43" fill="none" xmlns="http://www.w3.org/2000/svg">
<path d="M52.5566 0.304688H63.3379L71.7582 30.9442L76.5272 11.9007H84.8352L89.6477 30.9442L93.8922 11.9007H104.704L95.8226 39.1717H84.9491L80.5622 21.5106L76.1032 39.1717H65.3236L52.5566 0.304688Z" fill="#1D171A"/>
<path d="M122.927 11.8594C133.779 11.8594 139.414 16.7062 139.414 25.5394C139.414 34.3586 133.814 39.1722 122.927 39.1722H106.352V11.8594H122.927ZM116.379 31.9203H121.364C126.317 31.9203 128.645 30.1959 128.645 25.2758C128.645 20.422 126.359 18.6191 121.364 18.6191H116.379V31.9203Z" fill="#1D171A"/>
<path d="M152.492 30.8732C152.676 32.3044 154.283 33.1649 157.031 33.1649C159.704 33.1649 161.091 32.5208 161.091 31.2153C161.091 30.0459 159.876 29.3303 157.49 29.0266L149.995 28.051C143.793 27.2604 140.651 24.5237 140.651 19.9317C140.651 13.7043 145.439 11.1875 155.561 11.1875C166.081 11.1875 171.398 13.7374 171.825 19.8287H160.164C159.913 18.1305 158.242 17.2386 155.134 17.2386C152.751 17.2386 151.493 17.9926 151.493 19.0381C151.493 20.2406 152.751 20.5827 155.354 20.9544L164.479 22.349C170.187 23.2042 173 25.8047 173 30.3095C173 37.1407 167.296 39.9979 155.424 39.9979C145.584 39.9979 140.442 36.6154 140.373 30.875L152.492 30.8732Z" fill="#1D171A"/>
<path d="M45.0596 33.7288C45.1216 33.7288 45.1735 33.7288 45.2255 33.7149C46.1169 33.5473 46.0449 32.0882 46.0449 32.0882V2.99858C46.0449 2.15035 45.6193 2.03341 45.3813 2.0369C45.321 2.0369 43.3621 1.69307 42.0283 1.46094C42.1757 1.59009 42.2964 1.8292 42.2964 2.27601V31.9329C42.2964 31.9329 42.3752 33.5717 41.3145 33.5717L45.0596 33.7288Z" fill="#78B62B"/>
<path d="M25.7099 35.6469C25.5138 35.968 25.1703 36.1897 24.7782 36.1897H12.0146C11.4097 36.1897 10.9103 35.6643 10.9103 35.0308V8.51902C10.9103 7.87848 11.4097 7.35662 12.0146 7.35662H24.7782C24.8754 7.35662 24.9642 7.37407 25.0513 7.39676L36.5548 2.50806V0H4.85778C2.40459 0 0 2.55693 0 4.67054V43H31.3083C35.4992 43 36.5548 40.471 36.5548 38.2439V34.2105L25.7099 35.6469Z" fill="#199BD8"/>
<path d="M25.8908 8.48865L40.1374 2.44104C40.1374 2.44104 40.9133 2.2124 40.9133 3.33465V30.6196C40.9133 30.6196 40.9954 32.1782 39.9883 32.1782L25.8908 34.1993C25.8908 34.1993 25.1603 34.4716 25.1603 33.4523V9.48175C25.1603 9.48175 25.1351 8.81677 25.8908 8.48865Z" fill="#78B62B"/>
</svg>
