<svg width="30" height="30" viewBox="0 0 30 30" fill="none" xmlns="http://www.w3.org/2000/svg">
<path d="M21.6781 18.2524C21.6051 18.1969 21.5328 18.1404 21.4612 18.0831C21.0894 17.7838 20.6941 17.5087 20.3124 17.2419L20.0744 17.0756C19.5846 16.7318 19.1448 16.5647 18.7291 16.5647C18.1683 16.5647 17.6801 16.8746 17.2765 17.4845C17.0982 17.7551 16.8813 17.8866 16.6145 17.8866C16.4292 17.8801 16.2473 17.8345 16.0809 17.7528C14.5014 17.0363 13.3722 15.9375 12.7268 14.4871C12.4147 13.7858 12.516 13.3278 13.0646 12.9544C13.3768 12.7428 13.9564 12.3491 13.9164 11.5941C13.8695 10.7378 11.9794 8.15987 11.1828 7.86739C10.8423 7.74317 10.469 7.7421 10.1277 7.86436C9.2125 8.17196 8.5565 8.71309 8.22774 9.42729C7.91032 10.1181 7.92543 10.929 8.26855 11.7724C9.26238 14.2113 10.659 16.338 12.4207 18.0929C14.1446 19.8108 16.2638 21.2172 18.7185 22.2745C18.94 22.3698 19.172 22.4219 19.342 22.4597C19.3995 22.4726 19.4493 22.4839 19.4856 22.4937C19.5056 22.4991 19.5262 22.5019 19.5468 22.502H19.5665C20.7213 22.502 22.1081 21.447 22.5336 20.2446C22.907 19.191 22.2253 18.6703 21.6781 18.2524Z" fill="black"/>
<rect x="0.6" y="0.6" width="28.8" height="28.8" rx="14.4" stroke="black" stroke-width="1.2"/>
</svg>
