<svg width="34" height="34" viewBox="0 0 34 34" fill="none" xmlns="http://www.w3.org/2000/svg">
<rect width="34" height="34" rx="17" fill="white"/>
<path d="M23.071 15.7556C23.0916 13.2785 20.982 11.0079 18.3687 10.6935C18.3122 10.6865 18.2559 10.6779 18.1999 10.6678C18.0686 10.6427 17.9354 10.6284 17.8016 10.625C17.2655 10.625 17.1224 11.0019 17.0847 11.2254C17.0479 11.4438 17.083 11.628 17.1884 11.771C17.3657 12.0117 17.6783 12.0546 17.9293 12.0888C18.0021 12.0991 18.0715 12.1085 18.1297 12.1214C20.4783 12.6464 21.2689 13.4713 21.6552 15.8002C21.6646 15.8567 21.6689 15.9269 21.674 16.0015C21.6912 16.2798 21.7254 16.8589 22.3481 16.8589C22.3995 16.8589 22.4561 16.8546 22.5143 16.846C23.0933 16.7578 23.0753 16.2284 23.0668 15.9741C23.0642 15.9021 23.0616 15.8344 23.0685 15.789C23.0698 15.7777 23.0704 15.7662 23.0702 15.7548L23.071 15.7556Z" fill="#A57ADE"/>
<path d="M17.6491 9.7841C17.7193 9.78924 17.7844 9.79438 17.8393 9.80209C21.6962 10.3957 23.4701 12.2227 23.9609 16.1096C23.9695 16.1756 23.9712 16.2561 23.972 16.3409C23.9772 16.6449 23.9875 17.2771 24.6658 17.2899H24.6864C24.8997 17.2899 25.0684 17.2257 25.19 17.0989C25.4007 16.8788 25.387 16.5507 25.3742 16.2869C25.3716 16.2218 25.3691 16.161 25.3691 16.107C25.4187 12.1327 21.9772 8.52757 18.0063 8.39395C17.9892 8.39395 17.9737 8.39395 17.9583 8.39652C17.9427 8.39849 17.927 8.39935 17.9112 8.39909C17.871 8.39909 17.823 8.39566 17.7707 8.39223C17.7091 8.38795 17.638 8.38281 17.5652 8.38281C16.933 8.38281 16.8131 8.83249 16.7977 9.10059C16.7626 9.71986 17.3613 9.76355 17.6491 9.7841ZM23.775 21.1332C23.6923 21.0703 23.6103 21.0063 23.5292 20.9413C23.1078 20.6021 22.6598 20.2904 22.2273 19.988L21.9575 19.7996C21.4024 19.4098 20.9039 19.2205 20.4328 19.2205C19.7973 19.2205 19.244 19.5717 18.7866 20.2629C18.5844 20.5696 18.3386 20.7186 18.0363 20.7186C17.8263 20.7113 17.6202 20.6596 17.4315 20.567C15.6414 19.755 14.3617 18.5096 13.6302 16.8659C13.2765 16.0711 13.3913 15.552 14.0131 15.1289C14.3669 14.889 15.0238 14.4428 14.9784 13.5871C14.9253 12.6167 12.7831 9.69502 11.8803 9.36354C11.4944 9.22277 11.0714 9.22155 10.6846 9.36012C9.64736 9.70873 8.90389 10.322 8.5313 11.1314C8.17155 11.9143 8.18869 12.8334 8.57755 13.7893C9.70389 16.5533 11.2868 18.9636 13.2834 20.9525C15.2371 22.8994 17.6388 24.4934 20.4209 25.6917C20.6718 25.7996 20.9348 25.8587 21.1275 25.9015C21.1926 25.9161 21.2491 25.9289 21.2902 25.9401C21.3129 25.9461 21.3362 25.9493 21.3596 25.9495H21.3819C22.6907 25.9495 24.2624 24.7538 24.7446 23.391C25.1678 22.197 24.3952 21.6068 23.775 21.1332ZM18.2281 12.9421C18.0046 12.9473 17.5378 12.9593 17.3742 13.4338C17.2971 13.6565 17.3065 13.8484 17.4016 14.0068C17.5403 14.2381 17.8067 14.31 18.0483 14.3494C18.9262 14.4899 19.3776 14.9747 19.4675 15.8766C19.5095 16.2963 19.793 16.5901 20.1553 16.5901C20.1828 16.5901 20.2103 16.5884 20.2376 16.585C20.6744 16.5336 20.886 16.2124 20.8671 15.6308C20.874 15.0244 20.557 14.3357 20.0166 13.7875C19.4752 13.2377 18.8226 12.9276 18.2281 12.9421Z" fill="#A57ADE"/>
</svg>
