<svg width="34" height="34" viewBox="0 0 34 34" fill="none" xmlns="http://www.w3.org/2000/svg">
<g clip-path="url(#clip0_186_1600)">
<path d="M17 0C7.42475 0 0 7.01675 0 16.49C0 21.4455 2.0315 25.7295 5.338 28.6875C5.61425 28.934 5.78425 29.2825 5.79275 29.6565L5.88625 32.6825C5.89306 32.9051 5.95445 33.1227 6.06503 33.3161C6.17562 33.5094 6.332 33.6727 6.52045 33.7915C6.70889 33.9102 6.92362 33.9809 7.14578 33.9973C7.36793 34.0136 7.59069 33.9752 7.7945 33.8853L11.169 32.3978C11.4537 32.2702 11.7768 32.249 12.0785 32.3298C13.6298 32.7547 15.2788 32.9842 17 32.9842C26.5753 32.9842 34 25.9675 34 16.4943C34 7.021 26.5753 0 17 0Z" fill="white"/>
<path d="M6.79161 21.3152L11.7854 13.3932C11.9732 13.0949 12.2209 12.8389 12.5127 12.6411C12.8045 12.4434 13.1341 12.3083 13.4808 12.2444C13.8274 12.1805 14.1836 12.1892 14.5267 12.2699C14.8698 12.3506 15.1925 12.5015 15.4744 12.7132L19.4481 15.6924C19.6255 15.8253 19.8413 15.8967 20.0629 15.8959C20.2846 15.8951 20.4999 15.8222 20.6764 15.6882L26.0399 11.6167C26.7539 11.0727 27.6889 11.9312 27.2129 12.6919L22.2149 20.6097C22.027 20.9079 21.7793 21.164 21.4875 21.3617C21.1957 21.5595 20.8661 21.6945 20.5194 21.7584C20.1728 21.8223 19.8167 21.8137 19.4735 21.733C19.1304 21.6523 18.8077 21.5014 18.5259 21.2897L14.5521 18.3104C14.3747 18.1776 14.1589 18.1062 13.9373 18.107C13.7157 18.1077 13.5003 18.1806 13.3239 18.3147L7.96036 22.3862C7.24636 22.9302 6.31136 22.0759 6.79161 21.3152Z" fill="#697EEB"/>
</g>
<defs>
<clipPath id="clip0_186_1600">
<rect width="34" height="34" fill="white"/>
</clipPath>
</defs>
</svg>
