<svg width="30" height="31" viewBox="0 0 30 31" fill="none" xmlns="http://www.w3.org/2000/svg">
<path d="M20.3568 14.402C20.375 12.2164 18.5135 10.2128 16.2077 9.93546C16.1579 9.92925 16.1082 9.92169 16.0588 9.91279C15.9429 9.8906 15.8253 9.87796 15.7074 9.875C15.2343 9.875 15.108 10.2075 15.0748 10.4048C15.0423 10.5975 15.0733 10.76 15.1662 10.8862C15.3227 11.0986 15.5985 11.1364 15.82 11.1666C15.8842 11.1757 15.9454 11.184 15.9968 11.1953C18.0691 11.6586 18.7667 12.3864 19.1076 14.4413C19.1159 14.4912 19.1196 14.5532 19.1242 14.6189C19.1393 14.8646 19.1695 15.3755 19.719 15.3755C19.7643 15.3755 19.8142 15.3717 19.8656 15.3641C20.3765 15.2863 20.3606 14.8192 20.3531 14.5948C20.3508 14.5313 20.3485 14.4716 20.3546 14.4315C20.3558 14.4215 20.3563 14.4114 20.3561 14.4013L20.3568 14.402Z" fill="#8F58A7"/>
<path d="M15.5729 9.13487C15.6348 9.1394 15.6923 9.14394 15.7406 9.15074C19.1438 9.67449 20.709 11.2865 21.1421 14.7162C21.1496 14.7744 21.1512 14.8454 21.1519 14.9203C21.1565 15.1886 21.1655 15.7463 21.7641 15.7576H21.7822C21.9704 15.7576 22.1193 15.701 22.2266 15.5891C22.4125 15.3949 22.4004 15.1054 22.3891 14.8726C22.3868 14.8152 22.3846 14.7615 22.3846 14.7139C22.4284 11.2072 19.3917 8.02616 15.888 7.90826C15.8729 7.90826 15.8593 7.90826 15.8457 7.91053C15.8319 7.91227 15.818 7.91303 15.8041 7.9128C15.7686 7.9128 15.7263 7.90977 15.6802 7.90675C15.6258 7.90297 15.563 7.89844 15.4988 7.89844C14.941 7.89844 14.8352 8.29521 14.8216 8.53177C14.7906 9.07819 15.3189 9.11673 15.5729 9.13487ZM20.9781 19.1488C20.9051 19.0933 20.8328 19.0368 20.7612 18.9795C20.3893 18.6802 19.9941 18.4051 19.6124 18.1383L19.3744 17.972C18.8846 17.6282 18.4448 17.4611 18.0291 17.4611C17.4683 17.4611 16.9801 17.771 16.5765 18.3809C16.3982 18.6515 16.1812 18.783 15.9145 18.783C15.7292 18.7765 15.5473 18.7309 15.3809 18.6492C13.8013 17.9327 12.6722 16.8339 12.0268 15.3835C11.7147 14.6822 11.8159 14.2242 12.3646 13.8508C12.6768 13.6392 13.2564 13.2455 13.2164 12.4905C13.1695 11.6342 11.2793 9.05627 10.4828 8.76379C10.1422 8.63957 9.76896 8.6385 9.42772 8.76077C8.51249 9.06836 7.85649 9.60949 7.52773 10.3237C7.21031 11.0145 7.22542 11.8254 7.56854 12.6688C8.56237 15.1077 9.95903 17.2344 11.7207 18.9893C13.4446 20.7072 15.5638 22.1136 18.0185 23.171C18.24 23.2662 18.472 23.3183 18.642 23.3561C18.6995 23.369 18.7493 23.3803 18.7856 23.3901C18.8056 23.3955 18.8262 23.3983 18.8468 23.3984H18.8665C20.0213 23.3984 21.4081 22.3434 21.8336 21.141C22.207 20.0874 21.5253 19.5667 20.9781 19.1488ZM16.0838 11.9214C15.8865 11.9259 15.4746 11.9365 15.3303 12.3552C15.2622 12.5517 15.2705 12.721 15.3544 12.8608C15.4769 13.0649 15.7119 13.1283 15.925 13.1631C16.6997 13.287 17.098 13.7148 17.1773 14.5106C17.2144 14.881 17.4645 15.1402 17.7842 15.1402C17.8085 15.1401 17.8327 15.1386 17.8568 15.1357C18.2422 15.0903 18.4289 14.8069 18.4123 14.2937C18.4183 13.7586 18.1387 13.151 17.6618 12.6673C17.1841 12.1821 16.6083 11.9085 16.0838 11.9214Z" fill="#8F58A7"/>
<rect x="0.6" y="1.1" width="28.8" height="28.8" rx="14.4" stroke="#8F58A7" stroke-width="1.2"/>
</svg>
